<?xml version="1.0" encoding="UTF-8" standalone="no"?>
<!-- Created with Inkscape (http://www.inkscape.org/) -->
<svg xmlns:inkscape="http://www.inkscape.org/namespaces/inkscape" xmlns:rdf="http://www.w3.org/1999/02/22-rdf-syntax-ns#" xmlns="http://www.w3.org/2000/svg" xmlns:xlink="http://www.w3.org/1999/xlink" xmlns:ns1="http://sozi.baierouge.fr" xmlns:cc="http://creativecommons.org/ns#" xmlns:sodipodi="http://sodipodi.sourceforge.net/DTD/sodipodi-0.dtd" xmlns:dc="http://purl.org/dc/elements/1.1/" id="svg2" xml:space="preserve" viewBox="0 0 34.339 25.403" version="1.1" inkscape:version="0.91 r13725">
  <defs id="defs6">
    <linearGradient id="linearGradient24" y2="15.601" gradientUnits="userSpaceOnUse" x2="38.5" gradientTransform="matrix(.6796 .02288 .02288 -.6796 1.8672 14.999)" y1="15.601" x1="-3.9243">
      <stop id="stop26" style="stop-color:#e9b140" offset="0"/>
      <stop id="stop28" style="stop-color:#c47e00" offset="1"/>
    </linearGradient>
    <linearGradient id="linearGradient46" y2="7.3047" gradientUnits="userSpaceOnUse" x2="33.925" gradientTransform="matrix(.68 0 0 -.68 1.8672 14.998)" y1="7.3047" x1="4.4751">
      <stop id="stop48" style="stop-color:#b59648" offset="0"/>
      <stop id="stop50" style="stop-color:#e0bc60" offset="1"/>
    </linearGradient>
    <radialGradient id="radialGradient66" gradientUnits="userSpaceOnUse" cy="8.25" cx="19.238" gradientTransform="matrix(.68 0 0 .34104 1.8672 6.5752)" r="12.371">
      <stop id="stop68" style="stop-color:#fff8e8" offset="0"/>
      <stop id="stop70" style="stop-color:#ffe9b0" offset="1"/>
    </radialGradient>
    <linearGradient id="linearGradient102" y2="-17.45" gradientUnits="userSpaceOnUse" x2="9.7699" gradientTransform="matrix(.00010502 -.68 -.68 .00067998 1.8664 14.998)" y1="-17.45" x1="3.2949">
      <stop id="stop104" style="stop-color:#ffd500" offset="0"/>
      <stop id="stop106" style="stop-color:#fdb706" offset="1"/>
    </linearGradient>
    <linearGradient id="linearGradient132" y2=".9224" gradientUnits="userSpaceOnUse" x2="17.643" gradientTransform="matrix(.4208 -.53408 -.53408 -.4208 1.8672 14.998)" y1=".9224" x1="15.542">
      <stop id="stop134" style="stop-color:#f0c862" offset="0"/>
      <stop id="stop136" style="stop-color:#ffea85" offset="1"/>
    </linearGradient>
    <linearGradient id="linearGradient150" y2="-2.3677" gradientUnits="userSpaceOnUse" x2="20.244" gradientTransform="matrix(.42208 -.53312 -.53312 -.42208 1.8672 14.998)" y1="-2.3677" x1="18.713">
      <stop id="stop152" style="stop-color:#f0c862" offset="0"/>
      <stop id="stop154" style="stop-color:#ffea85" offset="1"/>
    </linearGradient>
    <linearGradient id="linearGradient168" y2="2.7788" gradientUnits="userSpaceOnUse" x2="8.7588" gradientTransform="matrix(.41656 -.53744 -.53744 -.41656 1.8672 14.998)" y1="2.7788" x1="7.4937">
      <stop id="stop170" style="stop-color:#f0c862" offset="0"/>
      <stop id="stop172" style="stop-color:#ffea85" offset="1"/>
    </linearGradient>
    <linearGradient id="linearGradient186" y2="-23.374" gradientUnits="userSpaceOnUse" x2="28.289" gradientTransform="matrix(.42288 -.53248 -.53248 -.42288 1.8672 14.998)" y1="-23.374" x1="27.204">
      <stop id="stop188" style="stop-color:#f0c862" offset="0"/>
      <stop id="stop190" style="stop-color:#ffea85" offset="1"/>
    </linearGradient>
    <linearGradient id="linearGradient204" y2="-23.7" gradientUnits="userSpaceOnUse" x2="25.612" gradientTransform="matrix(.4248 -.53096 -.53096 -.4248 1.8664 14.998)" y1="-23.7" x1="24.972">
      <stop id="stop206" style="stop-color:#f0c862" offset="0"/>
      <stop id="stop208" style="stop-color:#ffea85" offset="1"/>
    </linearGradient>
    <linearGradient id="linearGradient222" y2="-15.22" gradientUnits="userSpaceOnUse" x2="29.275" gradientTransform="matrix(.42256 -.5328 -.5328 -.42256 1.8672 14.998)" y1="-15.22" x1="28.35">
      <stop id="stop224" style="stop-color:#f0c862" offset="0"/>
      <stop id="stop226" style="stop-color:#ffea85" offset="1"/>
    </linearGradient>
    <linearGradient id="linearGradient240" y2="-11.221" gradientUnits="userSpaceOnUse" x2="10.667" gradientTransform="matrix(.4248 -.53096 -.53096 -.4248 1.8664 14.998)" y1="-11.221" x1="10.026">
      <stop id="stop242" style="stop-color:#f0c862" offset="0"/>
      <stop id="stop244" style="stop-color:#ffea85" offset="1"/>
    </linearGradient>
    <linearGradient id="linearGradient258" y2="-13.494" gradientUnits="userSpaceOnUse" x2="12.145" gradientTransform="matrix(.41904 -.53552 -.53552 -.41904 1.8672 14.998)" y1="-13.494" x1="11.415">
      <stop id="stop260" style="stop-color:#f0c862" offset="0"/>
      <stop id="stop262" style="stop-color:#ffea85" offset="1"/>
    </linearGradient>
    <linearGradient id="linearGradient278" y2="15.601" gradientUnits="userSpaceOnUse" x2="38.5" gradientTransform="matrix(.6796 .02296 .02296 -.6796 .0272 20.318)" y1="15.601" x1="-3.9243">
      <stop id="stop280" style="stop-color:#e9b140" offset="0"/>
      <stop id="stop282" style="stop-color:#c47e00" offset="1"/>
    </linearGradient>
    <linearGradient id="linearGradient300" y2="7.3047" gradientUnits="userSpaceOnUse" x2="33.925" gradientTransform="matrix(.68 .00013422 .00013422 -.68 .0272 20.318)" y1="7.3047" x1="4.4751">
      <stop id="stop302" style="stop-color:#b59648" offset="0"/>
      <stop id="stop304" style="stop-color:#e0bc60" offset="1"/>
    </linearGradient>
    <radialGradient id="radialGradient320" gradientUnits="userSpaceOnUse" cy="8.25" cx="19.237" gradientTransform="matrix(.68 .00013422 -.000067315 .34104 .0288 11.895)" r="12.372">
      <stop id="stop322" style="stop-color:#fff8e8" offset="0"/>
      <stop id="stop324" style="stop-color:#ffe9b0" offset="1"/>
    </radialGradient>
    <linearGradient id="linearGradient356" y2="-17.448" gradientUnits="userSpaceOnUse" x2="9.7699" gradientTransform="matrix(.00023924 -.68 -.68 .00054574 .0272 20.318)" y1="-17.448" x1="3.2949">
      <stop id="stop358" style="stop-color:#ffd500" offset="0"/>
      <stop id="stop360" style="stop-color:#fdb706" offset="1"/>
    </linearGradient>
    <linearGradient id="linearGradient386" y2=".92190" gradientUnits="userSpaceOnUse" x2="17.643" gradientTransform="matrix(.42088 -.534 -.534 -.42088 .0272 20.318)" y1=".92190" x1="15.542">
      <stop id="stop388" style="stop-color:#f0c862" offset="0"/>
      <stop id="stop390" style="stop-color:#ffea85" offset="1"/>
    </linearGradient>
    <linearGradient id="linearGradient404" y2="-2.3677" gradientUnits="userSpaceOnUse" x2="20.244" gradientTransform="matrix(.42216 -.53304 -.53304 -.42216 .0272 20.318)" y1="-2.3677" x1="18.713">
      <stop id="stop406" style="stop-color:#f0c862" offset="0"/>
      <stop id="stop408" style="stop-color:#ffea85" offset="1"/>
    </linearGradient>
    <linearGradient id="linearGradient422" y2="2.7783" gradientUnits="userSpaceOnUse" x2="8.7588" gradientTransform="matrix(.41664 -.53736 -.53736 -.41664 .0272 20.318)" y1="2.7783" x1="7.4937">
      <stop id="stop424" style="stop-color:#f0c862" offset="0"/>
      <stop id="stop426" style="stop-color:#ffea85" offset="1"/>
    </linearGradient>
    <linearGradient id="linearGradient440" y2="-23.375" gradientUnits="userSpaceOnUse" x2="28.289" gradientTransform="matrix(.42296 -.5324 -.5324 -.42296 .0272 20.318)" y1="-23.375" x1="27.204">
      <stop id="stop442" style="stop-color:#f0c862" offset="0"/>
      <stop id="stop444" style="stop-color:#ffea85" offset="1"/>
    </linearGradient>
    <linearGradient id="linearGradient458" y2="-23.698" gradientUnits="userSpaceOnUse" x2="25.612" gradientTransform="matrix(.42488 -.53088 -.53088 -.42488 .0272 20.318)" y1="-23.698" x1="24.972">
      <stop id="stop460" style="stop-color:#f0c862" offset="0"/>
      <stop id="stop462" style="stop-color:#ffea85" offset="1"/>
    </linearGradient>
    <linearGradient id="linearGradient476" y2="-15.221" gradientUnits="userSpaceOnUse" x2="29.275" gradientTransform="matrix(.42264 -.53264 -.53264 -.42264 .0264 20.318)" y1="-15.221" x1="28.35">
      <stop id="stop478" style="stop-color:#f0c862" offset="0"/>
      <stop id="stop480" style="stop-color:#ffea85" offset="1"/>
    </linearGradient>
    <linearGradient id="linearGradient494" y2="-11.22" gradientUnits="userSpaceOnUse" x2="10.667" gradientTransform="matrix(.42488 -.53088 -.53088 -.42488 .0272 20.318)" y1="-11.22" x1="10.026">
      <stop id="stop496" style="stop-color:#f0c862" offset="0"/>
      <stop id="stop498" style="stop-color:#ffea85" offset="1"/>
    </linearGradient>
    <linearGradient id="linearGradient512" y2="-13.493" gradientUnits="userSpaceOnUse" x2="12.145" gradientTransform="matrix(.4192 -.53536 -.53536 -.4192 .0264 20.318)" y1="-13.493" x1="11.415">
      <stop id="stop514" style="stop-color:#f0c862" offset="0"/>
      <stop id="stop516" style="stop-color:#ffea85" offset="1"/>
    </linearGradient>
  </defs>
  <g id="g10" transform="matrix(1.25 0 0 -1.25 0 25.403)">
    <g id="g12">
      <g id="g14">
        <g id="g16">
          <g id="g22">
            <path id="path30" style="fill-rule:evenodd;fill:url(#linearGradient24)" d="m27.332 10.033 0.016 0.02c0.297-2.207 0.054-4.016-0.727-5.426-0.91-1.676-2.574-2.887-5-3.637-1.902-0.589-4.226-0.918-6.969-0.984-2.879-0.047-5.113 0.238-6.699 0.848-2.449 0.929-4.172 2.187-5.168 3.777-0.793 1.27-1.086 2.648-0.883 4.148 0.043-1.066 0.68-2.078 1.903-3.027 1.293-0.976 2.867-1.598 4.726-1.871 5.668-0.836 10.664-0.293 14.992 1.633 1.157 0.5 2.098 1.18 2.825 2.039 0.703 0.863 1.031 1.687 0.984 2.48z" inkscape:connector-curvature="0"/>
          </g>
        </g>
      </g>
      <path id="path32" style="fill-rule:evenodd;fill:#c78915" d="m23.523 5.514c1.18 0.496 2.122 1.18 2.821 2.039 0.703 0.84 1.035 1.668 0.988 2.48 0.293-2.218 0.047-4.043-0.75-5.472-0.906-1.633-2.559-2.821-4.961-3.571-1.883-0.589-4.195-0.918-6.937-0.984-2.832-0.047-5.055 0.227-6.664 0.816 2.265-0.5 4.679-0.703 7.242-0.613 2.879 0.113 4.453 0.613 4.726 1.496 0.317 0.953-0.554 1.656-2.621 2.11 2.27 0.316 4.321 0.882 6.156 1.699z" inkscape:connector-curvature="0"/>
      <path id="path34" style="fill-rule:evenodd;fill:#bd8214" d="m27.332 10.033c0.543-3.851-0.644-6.57-3.57-8.156 0.66 0.723 0.953 1.426 0.883 2.106-0.067 0.636-0.383 0.976-0.95 1.019-0.429 0.047-1 0.012-1.699-0.101 0.813 0.293 1.324 0.5 1.527 0.613 1.18 0.496 2.122 1.18 2.821 2.039 0.707 0.84 1.035 1.668 0.988 2.48z" inkscape:connector-curvature="0"/>
      <g id="g36">
        <g id="g38">
          <g id="g44">
            <path id="path52" style="fill-rule:evenodd;fill:url(#linearGradient46)" d="m10.809 14.319c0.953 0.16 3.16 0.011 6.629-0.442 3.605-0.453 5.632-0.906 6.085-1.359 0.637-0.637 1.067-1.555 1.293-2.754 0.293-1.406 0.047-2.414-0.75-3.028-0.972-0.722-3.558-1.074-7.75-1.05-4.398 0.019-7.695 0.496-9.894 1.425-2.016 0.864-2.098 2.278-0.238 4.25 1.679 1.766 3.218 2.754 4.625 2.958z" inkscape:connector-curvature="0"/>
          </g>
        </g>
      </g>
      <path id="path54" style="fill-rule:evenodd;fill:#ffffff" d="m7.75 5.819c-1.496 1.203-1.973 2.359-1.43 3.468 0.614 1.27 2.473 2.188 5.578 2.754 3.125 0.567 5.801 0.512 8.024-0.172 2.039-0.586 3.238-1.515 3.601-2.785 0.184-0.726-0.734-1.406-2.753-2.043-2.082-0.656-4.395-0.961-6.934-0.914-2.176 0.043-3.844 0.008-5-0.105l-1.086-0.203z" inkscape:connector-curvature="0"/>
      <g id="g56">
        <g id="g58">
          <g id="g64">
            <path id="path72" style="fill-rule:evenodd;fill:url(#radialGradient66)" d="m7.75 4.936c-1.52 1.222-1.984 2.468-1.395 3.738 0.633 1.43 2.504 2.426 5.61 2.992 3.058 0.543 5.793 0.41 8.195-0.406 2.082-0.727 3.285-1.656 3.602-2.789 0.203-0.727-0.75-1.449-2.856-2.176-2.199-0.75-4.554-1.101-7.07-1.055-2.176 0.047-3.844 0.012-5-0.101l-1.086-0.203z" inkscape:connector-curvature="0"/>
          </g>
        </g>
      </g>
      <path id="path74" style="fill-rule:evenodd;fill:#ffe980" d="m23.152 8.471c0.52 0.316 0.805 0.758 0.848 1.324 0.047 0.637-0.215 1.238-0.781 1.805-1.473 1.496-4.387 2.242-8.739 2.242-2.808 0-5.156-0.59-7.035-1.766-1.949-1.226-2.133-2.425-0.547-3.605 1.567-1.156 4.274-1.699 8.129-1.633 3.739 0.07 6.446 0.613 8.125 1.633zm3.875-0.102c-0.636-1.359-1.769-2.39-3.402-3.093-1.926-0.84-4.09-1.418-6.492-1.735-2.945-0.387-5.895-0.293-8.84 0.274-2.539 0.496-4.398 1.496-5.574 2.988-1.157 1.496-1.137 2.848 0.066 4.047 2.766 2.812 6.891 4.183 12.375 4.113 5.145-0.043 8.965-1.176 11.457-3.398 0.887-0.817 1.024-1.883 0.41-3.196z" inkscape:connector-curvature="0"/>
      <path id="path76" style="fill-rule:evenodd;fill:#edc766" d="m2.785 10.85c1.86 1.859 4.453 3.105 7.785 3.742 2.961 0.555 5.965 0.543 9.012-0.035-5.484 0.656-9.984 0.047-13.5-1.836-3.082-1.633-4.328-3.422-3.738-5.371-0.727 1.312-0.578 2.48 0.441 3.5z" inkscape:connector-curvature="0"/>
      <path id="path78" style="fill-rule:evenodd;fill:#fff2b0" d="m17.371 4.053c3.242 0.519 5.723 1.437 7.445 2.75 1.836 1.363 2.461 2.914 1.872 4.66 0.839-0.816 0.941-1.883 0.304-3.195-0.633-1.293-1.758-2.289-3.363-2.992-1.93-0.84-4.094-1.418-6.496-1.735-2.945-0.387-5.895-0.293-8.84 0.274-1.359 0.269-2.57 0.711-3.637 1.324-0.976 0.613-1.711 1.305-2.211 2.074 1.68-1.496 3.762-2.516 6.258-3.059 2.606-0.589 5.496-0.625 8.668-0.101z" inkscape:connector-curvature="0"/>
      <path id="path80" style="fill-rule:evenodd;fill:#ebd29d" d="m20.805 8.912c0.453 0 0.679-0.101 0.679-0.304-0.019-0.207-0.273-0.297-0.746-0.274-0.453 0.024-0.66 0.125-0.613 0.309 0.066 0.179 0.297 0.269 0.68 0.269z" inkscape:connector-curvature="0"/>
      <path id="path82" style="fill-rule:evenodd;fill:#ebd29d" d="m19.855 8.166c0.34 0.02 0.461-0.047 0.372-0.207-0.09-0.156-0.282-0.238-0.579-0.238-0.273 0-0.351 0.07-0.238 0.207 0.09 0.133 0.238 0.215 0.445 0.238z" inkscape:connector-curvature="0"/>
      <path id="path84" style="fill-rule:evenodd;fill:#ebd29d" d="m13.02 7.518c0.882-0.133 0.996-0.36 0.339-0.68-0.113-0.066-0.25-0.078-0.406-0.035-0.344 0.094-0.66 0.148-0.953 0.172-0.5 0.023-0.543 0.136-0.137 0.34 0.407 0.179 0.793 0.25 1.157 0.203z" inkscape:connector-curvature="0"/>
      <path id="path86" style="fill-rule:evenodd;fill:#ebd29d" d="m9.723 8.029c0.269-0.023 0.382-0.101 0.339-0.238-0.046-0.137-0.183-0.195-0.41-0.172-0.203 0.024-0.304 0.102-0.304 0.239 0 0.136 0.125 0.195 0.375 0.171z" inkscape:connector-curvature="0"/>
      <path id="path88" style="fill-rule:evenodd;fill:#ebd29d" d="m8.871 10.17c0.77 0.297 1.711 0.547 2.824 0.75 2.219 0.406 4.203 0.371 5.95-0.101 2.128-0.567 2.89-1.27 2.277-2.11-0.59-0.84-2.289-1.281-5.102-1.324-2.379-0.07-4.078 0.371-5.097 1.324l-0.852 1.461z" inkscape:connector-curvature="0"/>
      <path id="path90" style="fill-rule:evenodd;fill:#d1b579" d="m9.039 10.236c0.684 0.344 1.52 0.625 2.52 0.852 1.992 0.477 3.804 0.477 5.437 0 1.949-0.566 2.652-1.269 2.109-2.105-0.566-0.84-2.144-1.282-4.726-1.329-2.199-0.066-3.75 0.34-4.656 1.227l-0.684 1.355z" inkscape:connector-curvature="0"/>
      <g id="g92">
        <g id="g94">
          <g id="g100">
            <path id="path108" style="fill-rule:evenodd;fill:url(#linearGradient102)" d="m8.871 10.17c0.184 0.477 0.59 0.953 1.223 1.43 0.906 0.699 2.019 1.086 3.332 1.156 1.722 0.09 3.094-0.34 4.113-1.293 0.523-0.5 0.875-0.996 1.055-1.496-0.137-0.363-0.465-0.715-0.985-1.055-1.019-0.703-2.437-1.043-4.25-1.019-1.925 0.047-3.254 0.441-3.98 1.191l-0.508 1.086z" inkscape:connector-curvature="0"/>
          </g>
        </g>
      </g>
      <path id="path110" style="fill-rule:evenodd;fill:#ffd830" d="m13.324 12.483c1.09 0.023 1.914-0.102 2.485-0.375 0.496-0.204 0.609-0.383 0.339-0.543-0.046-0.024-0.261 0-0.648 0.066-0.543 0.09-1.145 0.117-1.801 0.07-0.523-0.047-1.222-0.191-2.109-0.441-0.586-0.16-0.895-0.16-0.918 0-0.043 0.226 0.226 0.484 0.816 0.781 0.614 0.293 1.223 0.442 1.836 0.442z" inkscape:connector-curvature="0"/>
      <path id="path112" style="fill-rule:evenodd;fill:#fcda65" d="m9.551 9.658 0.679-0.543c0.727-0.382 1.758-0.589 3.094-0.613 1.52-0.019 2.789 0.207 3.809 0.684 0.5 0.226 0.851 0.465 1.055 0.711-0.161-0.293-0.5-0.586-1.02-0.883-1.02-0.567-2.402-0.836-4.148-0.817-1.407 0.024-2.403 0.274-2.993 0.75l-0.476 0.711z" inkscape:connector-curvature="0"/>
      <path id="path114" style="fill-rule:evenodd;fill:#ffeea6" d="m12.543 12.315c0.5 0.019 0.805-0.024 0.918-0.137 0.09-0.09 0.012-0.16-0.238-0.203-0.364-0.184-0.782-0.285-1.258-0.309-0.363-0.047-0.442 0.047-0.238 0.274 0.203 0.226 0.476 0.351 0.816 0.375z" inkscape:connector-curvature="0"/>
      <path id="path116" style="fill-rule:evenodd;fill:#ffffff" d="m21.078 10.377c0.09 0.043 0.168 0.043 0.238 0 0.043-0.047 0.02-0.117-0.07-0.207-0.113-0.09-0.215-0.113-0.305-0.066-0.089 0.043-0.046 0.132 0.137 0.273z" inkscape:connector-curvature="0"/>
      <path id="path118" style="fill-rule:evenodd;fill:#ffffff" d="m20.805 10.033c0.113 0.024 0.136-0.011 0.066-0.101-0.066-0.113-0.125-0.149-0.168-0.102-0.047 0.024-0.058 0.067-0.035 0.137 0.047 0.047 0.09 0.066 0.137 0.066z" inkscape:connector-curvature="0"/>
      <path id="path120" style="fill-rule:evenodd;fill:#fff7cc" d="m21.656 12.654c1.473-0.523 2.367-1.246 2.684-2.175 0.297-0.887 0.012-1.645-0.848-2.282-1.793-1.289-5.238-1.847-10.336-1.664-2.043 0.067-3.683 0.375-4.929 0.918-0.977 0.43-1.614 0.95-1.907 1.563 0.317-0.317 0.512-0.496 0.578-0.543 1.567-1.156 4.274-1.703 8.125-1.633 3.743 0.07 6.45 0.613 8.129 1.633 0.746 0.43 1.008 1.062 0.782 1.902-0.227 0.953-1.055 1.735-2.485 2.348l0.207-0.067z" inkscape:connector-curvature="0"/>
      <g id="g122">
        <g id="g124">
          <g id="g130">
            <path id="path138" style="fill-rule:evenodd;fill:url(#linearGradient132)" d="m7.75 6.295c1.062 0.137 1.652-0.035 1.766-0.512 0.136-0.476-0.328-0.644-1.391-0.507-0.66 0.066-0.988 0.25-0.988 0.543-0.024 0.25 0.183 0.406 0.613 0.476z" inkscape:connector-curvature="0"/>
          </g>
        </g>
      </g>
      <g id="g140">
        <g id="g142">
          <g id="g148">
            <path id="path156" style="fill-rule:evenodd;fill:url(#linearGradient150)" d="m11.422 6.158c0.59-0.113 0.848-0.316 0.781-0.613-0.066-0.293-0.441-0.383-1.121-0.269-0.637 0.113-0.816 0.304-0.547 0.578 0.274 0.269 0.57 0.371 0.887 0.304z" inkscape:connector-curvature="0"/>
          </g>
        </g>
      </g>
      <g id="g158">
        <g id="g160">
          <g id="g166">
            <path id="path174" style="fill-rule:evenodd;fill:url(#linearGradient168)" d="m3.668 10.033c0.727 0.114 0.977-0.078 0.75-0.578-0.227-0.496-0.566-0.703-1.02-0.609-0.363 0.09-0.488 0.305-0.375 0.644 0.114 0.317 0.329 0.5 0.645 0.543z" inkscape:connector-curvature="0"/>
          </g>
        </g>
      </g>
      <g id="g176">
        <g id="g178">
          <g id="g184">
            <path id="path192" style="fill-rule:evenodd;fill:url(#linearGradient186)" d="m26.074 10.545c0.52-0.09 0.703-0.262 0.547-0.512-0.16-0.25-0.457-0.316-0.887-0.203-0.382 0.09-0.476 0.239-0.269 0.442 0.203 0.226 0.406 0.316 0.609 0.273z" inkscape:connector-curvature="0"/>
          </g>
        </g>
      </g>
      <g id="g194">
        <g id="g196">
          <g id="g202">
            <path id="path210" style="fill-rule:evenodd;fill:url(#linearGradient204)" d="m25.223 11.869c0.273-0.019 0.363-0.121 0.273-0.304-0.09-0.157-0.238-0.204-0.441-0.137-0.203 0.07-0.285 0.172-0.239 0.305 0.047 0.117 0.18 0.16 0.407 0.136z" inkscape:connector-curvature="0"/>
          </g>
        </g>
      </g>
      <g id="g212">
        <g id="g214">
          <g id="g220">
            <path id="path228" style="fill-rule:evenodd;fill:url(#linearGradient222)" d="m22.367 6.463c0.524 0.07 0.66-0.055 0.41-0.371-0.273-0.316-0.589-0.477-0.953-0.477-0.359 0-0.484 0.121-0.371 0.375 0.09 0.246 0.395 0.407 0.914 0.473z" inkscape:connector-curvature="0"/>
          </g>
        </g>
      </g>
      <g id="g230">
        <g id="g232">
          <g id="g238">
            <path id="path246" style="fill-rule:evenodd;fill:url(#linearGradient240)" d="m12.238 14.557c0.567 0.023 0.746-0.047 0.543-0.203-0.16-0.118-0.453-0.227-0.883-0.34-0.296-0.094-0.351-0.024-0.171 0.203 0.183 0.227 0.351 0.34 0.511 0.34z" inkscape:connector-curvature="0"/>
          </g>
        </g>
      </g>
      <g id="g248">
        <g id="g250">
          <g id="g256">
            <path id="path264" style="fill-rule:evenodd;fill:url(#linearGradient258)" d="m14.176 14.557c0.203 0 0.316-0.071 0.34-0.203 0.023-0.118-0.137-0.172-0.477-0.172-0.383 0-0.543 0.054-0.477 0.172 0.071 0.132 0.274 0.203 0.614 0.203z" inkscape:connector-curvature="0"/>
          </g>
        </g>
      </g>
      <path id="path266" style="fill-rule:evenodd;fill:#000000;fill-opacity:0.251" d="m26.508 8.557c0.133-1.199-0.629-2.254-2.281-3.16-1.653-0.934-3.641-1.481-5.961-1.637-2.344-0.188-4.598 0.039-6.758 0.68-2.16 0.64-3.496 1.277-4 1.918 0.984 0.718 2.304 1.535 3.961 2.441 1.679 0.906 3.73 1.52 6.16 1.84 1.84 0.265 2.516 0.64 2.039 1.121 2.078 0.184 3.691 0.023 4.84-0.481 1.172-0.535 1.84-1.441 2-2.722z" inkscape:connector-curvature="0"/>
      <g id="g268">
        <g id="g270">
          <g id="g276">
            <path id="path284" style="fill-rule:evenodd;fill:url(#linearGradient278)" d="m25.492 15.361 0.016 0.016c0.297-2.207 0.054-4.016-0.727-5.422-0.906-1.679-2.574-2.89-5-3.64-1.902-0.59-4.222-0.918-6.969-0.989-2.878-0.043-5.109 0.239-6.695 0.852-2.449 0.926-4.172 2.183-5.172 3.773-0.793 1.27-1.086 2.649-0.883 4.149 0.047-1.067 0.68-2.074 1.907-3.028 1.289-0.972 2.867-1.597 4.722-1.867 5.668-0.84 10.668-0.293 14.997 1.633 1.152 0.5 2.093 1.18 2.82 2.043 0.703 0.859 1.031 1.684 0.984 2.48z" inkscape:connector-curvature="0"/>
          </g>
        </g>
      </g>
      <path id="path286" style="fill-rule:evenodd;fill:#c78915" d="m21.688 10.838c1.175 0.496 2.117 1.18 2.82 2.039 0.703 0.84 1.031 1.668 0.984 2.484 0.297-2.222 0.047-4.046-0.746-5.476-0.906-1.629-2.562-2.82-4.965-3.57-1.879-0.59-4.191-0.918-6.933-0.989-2.836-0.043-5.055 0.227-6.664 0.817 2.265-0.496 4.679-0.703 7.242-0.61 2.879 0.114 4.453 0.614 4.726 1.496 0.317 0.954-0.554 1.653-2.621 2.106 2.27 0.32 4.321 0.887 6.157 1.703z" inkscape:connector-curvature="0"/>
      <path id="path288" style="fill-rule:evenodd;fill:#bd8214" d="m25.492 15.361c0.547-3.855-0.644-6.574-3.566-8.164 0.656 0.727 0.949 1.43 0.883 2.11-0.071 0.637-0.387 0.976-0.954 1.019-0.429 0.047-0.996 0.012-1.699-0.101 0.817 0.293 1.324 0.5 1.532 0.613 1.175 0.496 2.117 1.18 2.82 2.039 0.703 0.84 1.031 1.668 0.984 2.484z" inkscape:connector-curvature="0"/>
      <g id="g290">
        <g id="g292">
          <g id="g298">
            <path id="path306" style="fill-rule:evenodd;fill:url(#linearGradient300)" d="m8.969 19.639c0.953 0.16 3.16 0.012 6.629-0.442 3.605-0.449 5.632-0.902 6.086-1.355 0.636-0.637 1.066-1.555 1.293-2.754 0.293-1.406 0.046-2.414-0.747-3.027-0.976-0.727-3.558-1.078-7.753-1.055-4.399 0.02-7.696 0.496-9.891 1.426-2.02 0.859-2.098 2.277-0.242 4.25 1.679 1.769 3.218 2.754 4.625 2.957z" inkscape:connector-curvature="0"/>
          </g>
        </g>
      </g>
      <path id="path308" style="fill-rule:evenodd;fill:#ffffff" d="m5.91 11.139c-1.496 1.203-1.972 2.359-1.43 3.469 0.614 1.269 2.473 2.187 5.579 2.753 3.125 0.567 5.8 0.512 8.019-0.167 2.043-0.59 3.242-1.516 3.606-2.786 0.183-0.726-0.735-1.406-2.754-2.043-2.082-0.656-4.395-0.964-6.934-0.918-2.176 0.047-3.84 0.012-4.996-0.101l-1.09-0.207z" inkscape:connector-curvature="0"/>
      <g id="g310">
        <g id="g312">
          <g id="g318">
            <path id="path326" style="fill-rule:evenodd;fill:url(#radialGradient320)" d="m5.91 10.256c-1.519 1.223-1.984 2.469-1.394 3.738 0.636 1.43 2.504 2.426 5.609 2.996 3.059 0.543 5.793 0.407 8.195-0.406 2.086-0.726 3.285-1.656 3.606-2.789 0.203-0.726-0.75-1.449-2.856-2.176-2.199-0.75-4.558-1.101-7.074-1.054-2.176 0.043-3.84 0.011-4.996-0.106l-1.09-0.203z" inkscape:connector-curvature="0"/>
          </g>
        </g>
      </g>
      <path id="path328" style="fill-rule:evenodd;fill:#ffe980" d="m24.777 16.889c0.887-0.817 1.024-1.879 0.411-3.195-0.633-1.36-1.766-2.391-3.399-3.094-1.926-0.84-4.09-1.418-6.492-1.735-2.949-0.386-5.895-0.296-8.84 0.27-2.539 0.496-4.398 1.492-5.578 2.988-1.156 1.496-1.133 2.844 0.066 4.047 2.766 2.813 6.891 4.184 12.375 4.117 5.145-0.043 8.965-1.176 11.457-3.398zm-3.465-3.094c0.52 0.316 0.805 0.758 0.848 1.324 0.047 0.637-0.215 1.239-0.781 1.805-1.473 1.496-4.387 2.242-8.738 2.242-2.809-0.004-5.157-0.59-7.036-1.769-1.949-1.227-2.132-2.426-0.546-3.606 1.566-1.156 4.273-1.699 8.129-1.629 3.738 0.067 6.445 0.614 8.124 1.633z" inkscape:connector-curvature="0"/>
      <path id="path330" style="fill-rule:evenodd;fill:#edc766" d="m0.945 16.17c1.86 1.859 4.453 3.109 7.785 3.742 2.961 0.559 5.961 0.547 9.008-0.031-5.484 0.656-9.98 0.043-13.496-1.84-3.082-1.633-4.328-3.422-3.738-5.371-0.727 1.313-0.578 2.481 0.441 3.5z" inkscape:connector-curvature="0"/>
      <path id="path332" style="fill-rule:evenodd;fill:#fff2b0" d="m15.531 9.373c3.242 0.524 5.723 1.442 7.446 2.758 1.835 1.359 2.461 2.91 1.871 4.656 0.84-0.816 0.941-1.879 0.304-3.195-0.632-1.293-1.754-2.289-3.363-2.992-1.926-0.84-4.09-1.418-6.492-1.735-2.949-0.386-5.895-0.296-8.84 0.27-1.359 0.273-2.574 0.715-3.641 1.324-0.972 0.613-1.711 1.305-2.211 2.074 1.68-1.496 3.766-2.515 6.258-3.058 2.606-0.59 5.496-0.621 8.668-0.102z" inkscape:connector-curvature="0"/>
      <path id="path334" style="fill-rule:evenodd;fill:#ebd29d" d="m18.965 14.236c0.453 0 0.68-0.101 0.68-0.304-0.02-0.207-0.27-0.297-0.747-0.274-0.453 0.024-0.66 0.125-0.613 0.305 0.07 0.184 0.293 0.273 0.68 0.273z" inkscape:connector-curvature="0"/>
      <path id="path336" style="fill-rule:evenodd;fill:#ebd29d" d="m18.012 13.486c0.343 0.024 0.465-0.042 0.375-0.203-0.09-0.156-0.282-0.238-0.578-0.238-0.27 0-0.348 0.07-0.239 0.203 0.09 0.137 0.239 0.219 0.442 0.238z" inkscape:connector-curvature="0"/>
      <path id="path338" style="fill-rule:evenodd;fill:#ebd29d" d="m11.18 12.842c0.882-0.137 0.996-0.363 0.34-0.68-0.114-0.07-0.25-0.082-0.407-0.035-0.34 0.09-0.66 0.149-0.953 0.168-0.5 0.024-0.543 0.137-0.137 0.34 0.411 0.184 0.793 0.25 1.157 0.207z" inkscape:connector-curvature="0"/>
      <path id="path340" style="fill-rule:evenodd;fill:#ebd29d" d="m7.883 13.35c0.269-0.024 0.383-0.102 0.34-0.239-0.047-0.132-0.184-0.191-0.411-0.167-0.203 0.019-0.304 0.101-0.304 0.238s0.125 0.191 0.375 0.168z" inkscape:connector-curvature="0"/>
      <path id="path342" style="fill-rule:evenodd;fill:#ebd29d" d="m7.031 15.49c0.77 0.297 1.711 0.547 2.824 0.75 2.219 0.411 4.204 0.375 5.95-0.101 2.129-0.567 2.886-1.27 2.277-2.106-0.59-0.839-2.289-1.281-5.102-1.328-2.378-0.07-4.078 0.375-5.097 1.324l-0.852 1.461z" inkscape:connector-curvature="0"/>
      <path id="path344" style="fill-rule:evenodd;fill:#d1b579" d="m7.203 15.561c0.68 0.34 1.516 0.621 2.516 0.851 1.992 0.477 3.808 0.477 5.437 0 1.949-0.566 2.653-1.269 2.11-2.109-0.567-0.84-2.141-1.281-4.727-1.324-2.199-0.071-3.75 0.336-4.656 1.218l-0.68 1.364z" inkscape:connector-curvature="0"/>
      <g id="g346">
        <g id="g348">
          <g id="g354">
            <path id="path362" style="fill-rule:evenodd;fill:url(#linearGradient356)" d="m7.031 15.49c0.184 0.477 0.59 0.954 1.227 1.43 0.906 0.703 2.015 1.09 3.328 1.156 1.723 0.094 3.094-0.34 4.117-1.289 0.52-0.5 0.871-0.996 1.055-1.496-0.137-0.363-0.465-0.715-0.988-1.055-1.02-0.703-2.434-1.042-4.25-1.019-1.926 0.043-3.25 0.441-3.977 1.187l-0.512 1.086z" inkscape:connector-curvature="0"/>
          </g>
        </g>
      </g>
      <path id="path364" style="fill-rule:evenodd;fill:#ffd830" d="m11.484 17.803c1.09 0.023 1.918-0.102 2.485-0.371 0.496-0.203 0.609-0.387 0.34-0.543-0.047-0.024-0.262 0-0.649 0.066-0.543 0.09-1.144 0.114-1.801 0.067-0.519-0.047-1.222-0.192-2.109-0.442-0.59-0.16-0.895-0.16-0.918 0-0.043 0.227 0.227 0.485 0.816 0.781 0.614 0.297 1.227 0.442 1.836 0.442z" inkscape:connector-curvature="0"/>
      <path id="path366" style="fill-rule:evenodd;fill:#fcda65" d="m7.711 14.983 0.68-0.543c0.726-0.387 1.757-0.59 3.093-0.614 1.52-0.023 2.789 0.203 3.809 0.684 0.5 0.223 0.852 0.465 1.055 0.711-0.16-0.293-0.5-0.59-1.02-0.883-1.019-0.566-2.402-0.84-4.148-0.816-1.407 0.023-2.403 0.269-2.992 0.746l-0.477 0.715z" inkscape:connector-curvature="0"/>
      <path id="path368" style="fill-rule:evenodd;fill:#ffeea6" d="m10.703 17.635c0.5 0.023 0.805-0.024 0.918-0.137 0.09-0.09 0.012-0.156-0.238-0.203-0.363-0.18-0.781-0.281-1.258-0.305-0.363-0.046-0.441 0.043-0.238 0.27 0.203 0.226 0.476 0.351 0.816 0.375z" inkscape:connector-curvature="0"/>
      <path id="path370" style="fill-rule:evenodd;fill:#ffffff" d="m19.238 15.697c0.09 0.047 0.168 0.047 0.239 0 0.043-0.043 0.019-0.113-0.071-0.203-0.113-0.09-0.215-0.113-0.304-0.066-0.09 0.043-0.047 0.133 0.136 0.269z" inkscape:connector-curvature="0"/>
      <path id="path372" style="fill-rule:evenodd;fill:#ffffff" d="m18.965 15.358c0.113 0.023 0.137-0.012 0.066-0.102-0.066-0.113-0.121-0.148-0.168-0.102-0.047 0.024-0.058 0.067-0.035 0.137 0.047 0.043 0.094 0.067 0.137 0.067z" inkscape:connector-curvature="0"/>
      <path id="path374" style="fill-rule:evenodd;fill:#fff7cc" d="m19.816 17.975c1.473-0.52 2.368-1.246 2.684-2.176 0.297-0.883 0.012-1.641-0.848-2.277-1.793-1.293-5.238-1.848-10.336-1.668-2.039 0.07-3.683 0.375-4.929 0.918-0.977 0.429-1.61 0.949-1.907 1.562 0.321-0.316 0.512-0.5 0.579-0.543 1.566-1.156 4.273-1.699 8.129-1.629 3.738 0.067 6.449 0.614 8.124 1.633 0.747 0.43 1.008 1.066 0.782 1.902-0.227 0.954-1.055 1.735-2.485 2.348l0.207-0.07z" inkscape:connector-curvature="0"/>
      <g id="g376">
        <g id="g378">
          <g id="g384">
            <path id="path392" style="fill-rule:evenodd;fill:url(#linearGradient386)" d="m5.91 11.615c1.067 0.137 1.656-0.031 1.77-0.507 0.132-0.477-0.332-0.649-1.395-0.512-0.656 0.066-0.988 0.25-0.988 0.543-0.02 0.25 0.183 0.41 0.613 0.476z" inkscape:connector-curvature="0"/>
          </g>
        </g>
      </g>
      <g id="g394">
        <g id="g396">
          <g id="g402">
            <path id="path410" style="fill-rule:evenodd;fill:url(#linearGradient404)" d="m9.582 11.483c0.59-0.118 0.852-0.321 0.781-0.614-0.066-0.293-0.441-0.386-1.121-0.273-0.633 0.113-0.816 0.305-0.543 0.578 0.27 0.273 0.567 0.375 0.883 0.309z" inkscape:connector-curvature="0"/>
          </g>
        </g>
      </g>
      <g id="g412">
        <g id="g414">
          <g id="g420">
            <path id="path428" style="fill-rule:evenodd;fill:url(#linearGradient422)" d="m1.828 15.354c0.727 0.113 0.977-0.078 0.75-0.575-0.226-0.5-0.566-0.703-1.019-0.613-0.364 0.09-0.489 0.305-0.375 0.645 0.113 0.316 0.328 0.5 0.644 0.543z" inkscape:connector-curvature="0"/>
          </g>
        </g>
      </g>
      <g id="g430">
        <g id="g432">
          <g id="g438">
            <path id="path446" style="fill-rule:evenodd;fill:url(#linearGradient440)" d="m24.234 15.869c0.52-0.09 0.704-0.261 0.543-0.508-0.156-0.25-0.449-0.32-0.882-0.207-0.383 0.09-0.477 0.239-0.27 0.442 0.203 0.226 0.406 0.32 0.609 0.273z" inkscape:connector-curvature="0"/>
          </g>
        </g>
      </g>
      <g id="g448">
        <g id="g450">
          <g id="g456">
            <path id="path464" style="fill-rule:evenodd;fill:url(#linearGradient458)" d="m23.387 17.194c0.269-0.02 0.359-0.122 0.269-0.305-0.09-0.16-0.238-0.203-0.441-0.137-0.203 0.07-0.285 0.172-0.238 0.309 0.046 0.109 0.179 0.156 0.41 0.133z" inkscape:connector-curvature="0"/>
          </g>
        </g>
      </g>
      <g id="g466">
        <g id="g468">
          <g id="g474">
            <path id="path482" style="fill-rule:evenodd;fill:url(#linearGradient476)" d="m20.531 11.787c0.52 0.071 0.657-0.054 0.407-0.371-0.274-0.32-0.59-0.476-0.95-0.476-0.363 0-0.488 0.121-0.375 0.371 0.09 0.25 0.395 0.41 0.918 0.476z" inkscape:connector-curvature="0"/>
          </g>
        </g>
      </g>
      <g id="g484">
        <g id="g486">
          <g id="g492">
            <path id="path500" style="fill-rule:evenodd;fill:url(#linearGradient494)" d="m10.398 19.877c0.567 0.024 0.747-0.043 0.543-0.203-0.16-0.113-0.453-0.227-0.882-0.34-0.297-0.09-0.352-0.023-0.172 0.203 0.183 0.227 0.351 0.34 0.511 0.34z" inkscape:connector-curvature="0"/>
          </g>
        </g>
      </g>
      <g id="g502">
        <g id="g504">
          <g id="g510">
            <path id="path518" style="fill-rule:evenodd;fill:url(#linearGradient512)" d="m12.336 19.881c0.203 0 0.316-0.07 0.34-0.207 0.019-0.113-0.137-0.168-0.477-0.168-0.387 0-0.543 0.055-0.476 0.168 0.066 0.137 0.273 0.207 0.613 0.207z" inkscape:connector-curvature="0"/>
          </g>
        </g>
      </g>
    </g>
  </g>
<metadata><rdf:RDF><cc:Work><dc:format>image/svg+xml</dc:format><dc:type rdf:resource="http://purl.org/dc/dcmitype/StillImage"/><cc:license rdf:resource="http://creativecommons.org/licenses/publicdomain/"/><dc:publisher><cc:Agent rdf:about="http://openclipart.org/"><dc:title>Openclipart</dc:title></cc:Agent></dc:publisher></cc:Work><cc:License rdf:about="http://creativecommons.org/licenses/publicdomain/"><cc:permits rdf:resource="http://creativecommons.org/ns#Reproduction"/><cc:permits rdf:resource="http://creativecommons.org/ns#Distribution"/><cc:permits rdf:resource="http://creativecommons.org/ns#DerivativeWorks"/></cc:License></rdf:RDF></metadata></svg>
