<?xml version="1.0"?>
<svg xmlns:rdf="http://www.w3.org/1999/02/22-rdf-syntax-ns#" xmlns="http://www.w3.org/2000/svg" xmlns:cc="http://web.resource.org/cc/" xmlns:dc="http://purl.org/dc/elements/1.1/" id="svg2" viewBox="0 0 233.63 317" version="1.0">
  <g id="layer1" transform="translate(755.13 -455.33)">
    <g id="g3801" transform="translate(-497.6 -19.177)">
      <path id="path3524" d="m-154.95 730.66c-2.2-0.48-5.19-1.07-6.65-1.31-1.47-0.23-3.56-0.91-4.66-1.5-1.11-0.59-4.25-1.25-6.99-1.46-5.99-0.47-7.2-1.11-7.2-3.83 0-1.92-0.36-2.01-5.25-1.32-2.88 0.41-5.92 0.68-6.75 0.59-4.79-0.49-10.11-0.09-11.97 0.91-3.65 1.95-17.87 2.88-25.13 1.64-8.57-1.47-9.9-2.63-9.9-8.72 0-5.04 1.53-6.9 5.69-6.91 1-0.01 2.58-1.36 3.52-3 0.93-1.65 2.4-3 3.26-3s2.4-0.52 3.42-1.16c1.58-0.99 1.78-2.07 1.36-7.35-0.45-5.66-0.29-6.34 1.85-7.84 1.29-0.91 3.37-1.65 4.63-1.65 1.25 0 2.27-0.45 2.27-1s-0.73-1-1.63-1c-1.93 0-8.24-5.46-14.02-12.14-2.74-3.16-4.4-6.19-4.84-8.83-0.66-3.91-2.6-5.31-4.07-2.93-0.63 1.02-7.6 0.54-10.97-0.75-4.16-1.59-4.21-15.46-0.09-21.6 1.99-2.97 2.06-3.59 0.86-7.18-2.46-7.4 3.13-15.4 11.4-16.34 2.4-0.27 4.36-0.88 4.36-1.36s1.8-2.5 4-4.49c2.2-1.98 4.01-4.35 4.01-5.24 0-3.04 3.79-7.88 7.64-9.76 3.58-1.76 3.92-2.33 5.41-8.98 1.08-4.79 2.47-8.05 4.27-9.99 1.47-1.59 2.67-3.45 2.67-4.15 0-0.69 0.57-1.26 1.25-1.26 0.69-0.01 2.96-1.58 5.06-3.5 2.43-2.24 5.22-3.72 7.77-4.13 2.18-0.35 4.21-1.02 4.5-1.5 0.3-0.48 1.86-0.87 3.48-0.87 3.23 0 3.76-1.33 1.44-3.64-1.71-1.71-1.87-5.09-0.5-10.86 1.37-5.8 0.58-7.29-4.3-8.04-3.65-0.56-4.69-1.35-7.95-5.99-4.14-5.9-4.61-9.16-2.5-17.18 0.8-3.04 2.73-6.34 5.38-9.18 4.07-4.38 4.22-4.45 11.44-4.77 8.43-0.37 10.04 0.36 16.93 7.6 7.01 7.37 13.08 8.93 35.14 9.05 1.53 0.01 5.11 1.84 8.5 4.35 4.82 3.56 6.18 5.24 7.64 9.45 1.66 4.8 1.67 5.55 0.15 12.23-0.89 3.92-2.22 8.27-2.94 9.68-1.17 2.24-1.1 2.8 0.59 4.62 1.06 1.13 1.92 2.42 1.92 2.87s0.68 0.81 1.5 0.81c0.83 0 1.5 0.45 1.5 1 0 1.55 3 1.18 3.62-0.45 0.31-0.8-0.66-3.7-2.16-6.44-2.86-5.27-2.75-8.11 0.34-8.11 2.23 0 5.34 3.23 7.707 8 2.515 5.07 4.491 7 7.151 7 2.067 0 2.345-0.47 2.345-3.98 0-4.02-3.635-16.17-6.456-21.58-3.887-7.45-2.781-14.84 2.135-14.25 2.141 0.25 2.977 1.19 4.277 4.81 2.872 8 5.24 13 6.153 13 1.147 0 1.158-1.72 0.014-2.42-0.482-0.3-1.41-2.66-2.063-5.26-0.652-2.59-2.463-7.43-4.023-10.76-1.559-3.33-3.101-8.22-3.425-10.86-0.514-4.2-0.279-5.12 1.854-7.25 5.754-5.76 13.043-1.17 16.566 10.43 1.862 6.13 2.07 8.52 1.515 17.36-0.354 5.65-0.791 12.89-0.971 16.1-0.229 4.09-1.007 6.78-2.598 9l-2.271 3.16 3.397-3.09c9.502-8.66 18.284-12.18 21.997-8.82 2.897 2.62 2.684 14.48-0.363 20.17-2.467 4.62-9.769 11.18-14.699 13.23-1.713 0.71-2.872 1.79-2.577 2.4s0.787 1.79 1.092 2.62 2.471 2.31 4.815 3.27c6.793 2.81 10.562 6.6 12.672 12.72 1.042 3.03 1.909 6.69 1.927 8.14 0.019 1.58 0.737 2.91 1.782 3.3 3.763 1.41 12.215 7.03 12.8 8.5 1.413 3.57 2.168 11.67 1.301 13.96-1.028 2.7 1.259 8.82 3.636 9.74 0.735 0.28 1.938 2.56 2.675 5.06 0.736 2.5 1.903 4.77 2.593 5.04 2.326 0.89 4.474 6.94 3.72 10.46-0.931 4.35-2.209 5.8-5.119 5.8-1.588 0-2.783-0.84-3.538-2.5-1.473-3.23-3.427-3.19-4.25 0.09-1.648 6.56-4.047 10.11-9.513 14.05-3.119 2.24-7.31 4.62-9.315 5.28-2.016 0.67-3.919 2.07-4.259 3.14-0.339 1.07-1.003 1.94-1.476 1.94-0.941 0-4.345 8.57-5.463 13.75-0.577 2.68-0.397 3.25 1.013 3.25 0.942 0 3.402 0.51 5.465 1.13 4.176 1.25 7.98 6.63 7.98 11.29 0 2.98-2.324 4.39-4.396 2.67-1.056-0.88-1.515-0.76-2.002 0.51-0.923 2.4-6.037 1.1-10.264-2.61-3.927-3.44-4.903-3.21-10.169 2.44-2.565 2.75-4.118 3.57-6.75 3.57-1.88 0-3.419-0.48-3.419-1.06 0-0.6-1.397-0.93-3.162-0.75-2.673 0.26-3.272-0.09-3.867-2.26-0.526-1.93-0.035-3.57 1.934-6.46 2.708-3.99 5.147-5.19 10.878-5.37 5.798-0.17 5.897-4.96 0.329-15.88-2.419-4.74-5.082-6.85-10.474-8.31-4.842-1.31-14.961-8.14-17.651-11.92-2.7-3.8-4.37-13.17-3.36-18.93 0.44-2.51 0.71-5.3 0.61-6.21s0.48-2.2 1.29-2.87 1.47-1.73 1.48-2.35c0-0.62 1.35-2.7 2.99-4.63 1.65-1.92 3-3.85 3-4.28 0.01-1.87-3.48-1.83-7.33 0.07-2.29 1.14-5.41 2.38-6.93 2.75-2.88 0.71-6.74 5.17-6.74 7.8 0 0.84 0.81 1.78 1.8 2.1 2.29 0.73 8.21 11.85 8.18 15.38-0.03 3.84-4.86 12.03-9.11 15.43-2.12 1.7-5.34 3.14-7.75 3.46-2.26 0.31-4.12 0.89-4.12 1.3 0 0.4-1.91 1.1-4.25 1.54-3.4 0.65-3.74 0.88-1.7 1.18 1.39 0.2 3.84 1.41 5.44 2.68 2.61 2.08 2.92 2.96 3.1 8.7 0.15 5.27-0.18 6.79-1.92 8.69-2.88 3.15-1.35 5.3 5.13 7.17 5 1.45 6.15 2.78 6.19 7.13 0.02 2.02-11.72 7.48-17.99 8.37-2.47 0.35-5.62 0.79-7 0.98-1.37 0.19-4.3-0.05-6.5-0.54z"/>
      <path id="path3710" d="m-152.95 668.38c3.3-0.67 6.5-1.62 7.11-2.11 0.61-0.48 3.7-1.77 6.85-2.86 3.16-1.08 7.14-3.33 8.84-4.99 3.9-3.82 2.14-3.87-4.03-0.13-2.62 1.59-5.89 3.22-7.27 3.63-1.37 0.41-3.38 1.36-4.47 2.11-1.08 0.75-4.32 1.37-7.19 1.37s-5.5 0.45-5.84 1-2.81 1-5.48 1c-5.4 0-7.66-1.53-8.6-5.82-1.04-4.71-1.26-4.78-1.34-0.4-0.05 2.81 0.41 4.47 1.32 4.82 0.78 0.29 1.64 1.45 1.94 2.56 0.47 1.81 1.12 1.97 6.34 1.53 3.2-0.27 8.52-1.04 11.82-1.71z" fill="#f00"/>
      <path id="path3706" d="m-154.74 656.33c4.29-0.59 8.69-1.44 9.79-1.88s4.59-1.56 7.75-2.48c3.17-0.92 5.75-2.1 5.75-2.62s0.79-0.95 1.75-0.95c1.07-0.01 2.74-1.85 4.25-4.7 2.8-5.26 10.25-10.2 15.5-10.28 3.86-0.06 8-2.16 8-4.05 0-0.81-0.56-1.36-1.25-1.22-0.68 0.14-1.25-0.14-1.25-0.61 0-1.3-11.35-6.14-14.37-6.14-1.88 0-4.35 1.72-8.66 6.03-8.52 8.52-11.43 9.79-24.9 10.88-9.01 0.72-12.15 0.62-15.32-0.5-5.01-1.77-4.46-1.89-6.07 1.34-1.68 3.37-2.27 13.74-0.73 12.78 0.63-0.39 1.05 0.35 1.05 1.84 0 1.79 0.64 2.61 2.25 2.92 4.2 0.81 8.65 0.71 16.46-0.36z" fill="#f00"/>
      <path id="path3704" d="m-208.75 648.28c-0.73-1.21-3.53-4.45-6.23-7.18-3.64-3.7-5.11-4.63-5.73-3.65-1.47 2.31-1.62 5.48 4.64 11.43 3.85 3.67 8.41 5.17 9 4.58 0.6-0.6-0.84-3.78-1.68-5.18z" fill="#f00"/>
      <path id="path3702" d="m-204.52 648.65c-0.05-3.01-0.24-3.36-0.93-1.75-1.19 2.78-1.19 5.5 0 5.5 0.55 0 0.97-1.69 0.93-3.75z" fill="#f00"/>
      <path id="path3698" d="m-200.63 640.3c1.91 1.02 2.32 0.74 4.08-2.7 1.08-2.11 2.67-4.42 3.53-5.14 2.46-2.04 1.86-4.97-1.75-8.59-1.83-1.83-4.87-5.37-6.75-7.87-1.89-2.5-3.97-4.55-4.64-4.57-1.48-0.04-8.94 10.76-9.81 14.19-0.38 1.53-0.09 3.03 0.75 3.88 0.76 0.77 3.12 4.24 5.26 7.72 3.87 6.29 3.9 6.32 5.55 4.14 1.39-1.85 1.99-2.02 3.78-1.06z" fill="#f00"/>
      <path id="path3696" d="m-213.45 616.17c0-1.56-5.16-5.2-7.43-5.24-1.16-0.02-2.5-1.02-3.05-2.28-1.24-2.83-1.64-2.81-4.45 0.18l-2.28 2.43 6.85 3.19c3.78 1.76 7.02 3.61 7.21 4.11 0.41 1.1 3.15-0.98 3.15-2.39z" fill="#f00"/>
      <path id="path3694" d="m-99.89 613.18c-0.86-1.23-1.56-3.3-1.56-4.62 0-2.33-0.16-2.38-7.11-1.99-5.61 0.32-7.41 0.82-8.54 2.37-1.33 1.82-1.2 2.01 1.86 2.69 1.81 0.41 5.42 0.94 8.03 1.19 2.6 0.25 5.52 0.92 6.5 1.49 2.498 1.46 2.567 1.36 0.82-1.13z" fill="#f00"/>
      <path id="path3600" d="m-84.679 500.72c-3.044-0.19-6.296 1.11-5.469 4.82-0.846 8.98 5.924 16.12 7.75 24.59 1.771 2.65 3.44 9.53-1.625 9.22-6.004-3.67-5.38-12.35-8.906-17.66-4.323-1.72-3.566 5.02-2.219 7.32 2.746 5.29 3.957 11.38 6.782 16.53 0.477 4.74 2.555 10.65-0.188 14.9-5.761 2.75-11.616-3.68-13.066-8.81-1.09-1.55-3.34-4.18-4.5-4.47 0.46 4.46 5.63 9.57 2.44 13.78-1.1 1.41-4.52 0.19-2.94 2.63 1.21 2.55 0.22 6.96 1.72 8.56 5.543 0.22 10.904 2.35 16.159 3.16 3.326-2.16 2.063-7.48 4.343-10.57 0.769-4.24 4.023-7.08 5.313-10.96 4.434-6.12 2.318-14.88 4.035-22 0.907-10.73 0.657-24.01-8.629-31.04-0.33-0.04-0.67-0.04-1 0z" fill="#633100"/>
      <path id="path3566" d="m-112.91 540.75c0.25-2.12 0.72-5.08 1.04-6.59 0.74-3.53-2.7-10.32-7.1-14.03-3.64-3.06-12.74-5.27-17.45-4.24-2.49 0.55-18-1.74-19.93-2.93-0.41-0.25-0.57 0.76-0.36 2.24 0.2 1.48-0.49 4.35-1.54 6.37-1.81 3.5-1.82 3.69-0.11 4.14 0.98 0.26 2.02-0.16 2.32-0.92 0.29-0.77 1.39-1.39 2.45-1.39 1.05 0 3.2-0.67 4.78-1.5 3.19-1.66 7.36-2 7.36-0.59 0 0.5-1.79 1.22-3.99 1.59s-4.25 1.08-4.56 1.59c-0.31 0.5-1.48 0.91-2.59 0.91-3.62 0-1.35 2.46 3.22 3.5 2.43 0.55 6.22 2.24 8.41 3.75s4.54 2.75 5.22 2.75 4.38 2.7 8.21 6c3.84 3.3 7.46 6 8.06 6s1.36 0.71 1.7 1.59c0.9 2.35 4.26-3.36 4.86-8.24z" fill="#f00"/>
      <path id="path3522" d="m-79.702 723.09c0.684-0.65 2.484-2.16 3.998-3.35 2.738-2.15 2.755-2.24 2.957-15.51 0.196-12.92 0.134-13.36-1.92-13.67-3.953-0.58-3.158-2.69 0.993-2.63 2.144 0.03 5.322-0.26 7.063-0.64 2.434-0.54 3.164-0.36 3.164 0.78 0 1.6-2.054 2.68-5.081 2.68-1.306 0-1.937 0.72-1.975 2.25-0.032 1.24-0.221 5.63-0.422 9.75-0.543 11.19 0.005 12.97 5.319 17.25 2.558 2.06 5.216 3.75 5.905 3.75 1.996 0 1.454-4.41-0.846-6.88-3.975-4.26-0.94-3.4 3.263 0.93 4.502 4.64 5.72 4.16 3.845-1.53-1.426-4.32-1.964-4.65-8.362-5.23-2.83-0.25-5.546-0.85-6.036-1.32-0.516-0.49 0.041-3.14 1.323-6.3 1.217-3 2.32-6.07 2.451-6.81 0.586-3.34 1.846-5.86 2.934-5.87 0.765-0.01 0.697-0.33-0.196-0.89-1.787-1.13-0.558-3.1 1.937-3.1 1.068 0 1.941-0.45 1.941-1s-0.447-1-0.993-1-0.018-1.12 1.174-2.49 2.368-2.29 2.612-2.05c0.245 0.25-0.283 1.18-1.174 2.07-0.89 0.89-1.619 1.8-1.619 2.02 0 0.81 6.556-0.83 8.5-2.12 4.024-2.68 6.972-5.38 5.896-5.41-0.607-0.01-2.325 1.11-3.819 2.5-1.493 1.38-3.184 2.22-3.758 1.87-0.573-0.35-1.435-0.02-1.915 0.73-0.644 1.02-0.877 0.77-0.888-0.94-0.013-1.86 0.375-2.19 1.984-1.68 1.42 0.45 2 0.18 2-0.93 0-0.86 0.563-1.64 1.25-1.72 0.688-0.08 1.7-0.26 2.25-0.39 0.55-0.12 1.45-0.29 2-0.36s0.325-0.56-0.5-1.1c-1.294-0.83-1.269-0.97 0.183-0.98 0.925-0.01 1.968-0.92 2.317-2.02s1.103-2 1.675-2c0.591 0 0.736 0.76 0.336 1.75-1.718 4.28-1.491 4.48 0.877 0.79 2.318-3.61 2.508-4.71 2.16-12.5-0.367-8.24-0.581-9.43-2.712-15.17-0.899-2.41-1.27-2.56-4.604-1.81-4.2 0.95-5.026 0.59-8.691-3.8-2.264-2.71-2.653-4.02-2.374-7.97 0.397-5.63-1.159-6.47-6.937-3.73-8.143 3.87-20.42 2.6-26.226-2.7-1.72-1.57-3.93-2.86-4.91-2.86-0.981 0-2.561-0.86-3.511-1.91-2.165-2.39-5.266-3.53-13.886-5.09-6.29-1.14-6.91-1.1-8.22 0.63-2.02 2.67-1.81 3.37 0.98 3.37 1.35 0 3.71 0.54 5.25 1.19 3.36 1.43 14.293 7.93 14.293 8.5 0 0.62-8.943 17.29-10.763 20.07-1.02 1.57-1.76 5.45-2.04 10.72-0.39 7.52-0.2 8.66 2.17 12.7 3.16 5.39 7.18 9.37 8.05 7.96 0.34-0.56-0.17-1.47-1.15-2.02-1.52-0.87-1.42-0.99 0.73-0.85 3.12 0.2 5.383 2.3 4.62 4.29-0.851 2.22 4.145 4.37 5.549 2.39 0.838-1.19 0.925-1.14 0.48 0.25-0.577 1.8 0.174 2.18 6.569 3.25 3.982 0.67 5.787 2.31 3.856 3.51-0.885 0.55-0.743 1.66 0.557 4.39 0.958 2.01 2.07 3.65 2.47 3.65 1.449 0 2.059 8 0.882 11.56-1.043 3.16-1.495 3.53-3.685 2.98-4.221-1.06-8.733 1.12-11.122 5.37-2.667 4.74-2.679 5.09-0.173 5.09 1.1 0 2-0.53 2-1.17 0-1.48 2.986-4.83 4.31-4.83 0.55 0 0.202 0.88-0.773 1.96-1.199 1.33-1.569 2.78-1.143 4.47 0.584 2.33 0.833 2.43 3.369 1.31 1.505-0.67 3.297-1.75 3.982-2.4z" fill="#ffce31"/>
      <path id="path3520" d="m-64.447 684.81c0-0.58 0.45-1.06 1-1.06s1 0.2 1 0.44c0 0.25-0.45 0.72-1 1.06s-1 0.14-1-0.44z"/>
      <path id="path3518" d="m-94.947 681.75c-0.34-0.55-0.141-1 0.441-1 0.583 0 1.059 0.45 1.059 1s-0.198 1-0.441 1c-0.242 0-0.719-0.45-1.059-1z"/>
      <path id="path3516" d="m-105.94 673.9c-0.9-2.33 0.18-2.46 2.34-0.3 1.94 1.94 1.95 2.01 0.11 1.87-1.05-0.08-2.15-0.78-2.45-1.57z"/>
      <path id="path3514" d="m-107.95 668.75c-0.34-0.55-0.14-1 0.44-1 0.59 0 1.06 0.45 1.06 1s-0.2 1-0.44 1-0.72-0.45-1.06-1z"/>
      <path id="path3512" d="m-169.45 724.86c0-0.49-0.74-1.18-1.64-1.52-1.37-0.53-1.43-0.38-0.38 0.89 1.44 1.73 2.02 1.91 2.02 0.63z" fill="#fff"/>
      <path id="path3510" d="m-152.45 722.75c0-0.55-1.01-0.97-2.25-0.93-2.14 0.07-2.16 0.11-0.25 0.93 1.1 0.47 2.12 0.89 2.25 0.93 0.14 0.04 0.25-0.38 0.25-0.93z" fill="#fff"/>
      <path id="path3508" d="m-138.02 721.88c0.29-0.48-1.59-0.67-4.19-0.42-6.89 0.67-7.47 1.12-1.55 1.21 2.86 0.05 5.44-0.31 5.74-0.79z" fill="#fff"/>
      <path id="path3506" d="m-192.84 718.02c-0.33-0.33-0.57 0.26-0.53 1.32 0.05 1.16 0.29 1.4 0.61 0.6 0.29-0.72 0.25-1.59-0.08-1.92z" fill="#fff"/>
      <path id="path3504" d="m-129.38 718.17c0.86-1.03 0.38-0.99-1.97 0.18-1.7 0.85-3.1 1.7-3.1 1.88 0 0.82 4.05-0.83 5.07-2.06z" fill="#fff"/>
      <path id="path3502" d="m-178.06 715.25c0.49-2.19 0.4-2.59-0.34-1.5-0.56 0.83-1.02 2.36-1.03 3.42-0.02 2.56 0.55 1.76 1.37-1.92z" fill="#fff"/>
      <path id="path3500" d="m-162.48 715.25c0-0.55-0.43-0.32-0.97 0.5-0.53 0.83-0.97 1.95-0.97 2.5s0.44 0.33 0.97-0.5c0.54-0.82 0.97-1.95 0.97-2.5z" fill="#fff"/>
      <path id="path3498" d="m-228.31 715.21c-1.85-0.8-3.88-1.42-4.5-1.38-1.58 0.12 4.52 2.83 6.36 2.84 0.83 0-0.01-0.65-1.86-1.46z" fill="#fff"/>
      <path id="path3496" d="m-204.95 713.75c0.34-0.55 0.17-1-0.38-1s-1.28 0.45-1.62 1-0.16 1 0.39 1 1.27-0.45 1.61-1z" fill="#fff"/>
      <path id="path3494" d="m-151.45 712.69c0-0.58-0.45-0.78-1-0.44s-1 0.82-1 1.06 0.45 0.44 1 0.44 1-0.47 1-1.06z" fill="#fff"/>
      <path id="path3492" d="m-169.45 711.63c0-0.73 0.59-0.64 1.69 0.25 1.5 1.22 1.61 1.15 1-0.63-0.63-1.83-0.58-1.86 0.65-0.28 1.01 1.3 1.61 1.43 2.5 0.55 0.64-0.64 1.16-0.78 1.16-0.32 0 0.47 0.79-0.04 1.75-1.14 3.26-3.72 8.82-5.66 13.12-4.57 2.85 0.72 4.49 0.63 6.39-0.36 2.35-1.24 2.51-1.19 2.03 0.64-0.29 1.09-0.94 1.98-1.46 1.98s-0.62-0.52-0.23-1.15c0.45-0.73 0.27-0.88-0.49-0.41-0.93 0.57-0.93 1.07-0.02 2.16 1.25 1.52 2.99 0.71 5.59-2.6 1.76-2.23 2.63-8.09 1.39-9.33-0.59-0.59-1.07-1.78-1.07-2.65 0-1.35-4.65-5.02-6.37-5.02-0.3 0-1.03 0.89-1.61 1.98-0.87 1.62-0.78 1.87 0.47 1.39 1.11-0.43 1.36-0.14 0.92 1.02-0.34 0.89-1.14 1.61-1.78 1.61s-2.82 0.89-4.85 1.98c-3.08 1.65-5.99 2.03-17.49 2.25l-13.79 0.27 0.04-2.71c0.03-2.4-0.26-2.65-2.5-2.16-4.96 1.1-9.48 7.86-7.27 10.87 3.19 4.35 20.23 9.72 20.23 6.38z" fill="#fff"/>
      <path id="path3490" d="m-137.45 703.31c0-1.76 0.6-2.01 1.46-0.63 0.32 0.51 0.12 1.22-0.44 1.56-0.56 0.35-1.02-0.07-1.02-0.93z" fill="#fff"/>
      <path id="path3488" d="m-190.43 706.78c-0.56-1.04-1.02-2.76-1.02-3.83 0-1.41-1.68-2.65-6.25-4.64-8.7-3.78-12.81-5.9-13.49-6.98-0.32-0.5 0.12-0.65 0.98-0.32 1.05 0.41 1.75-0.1 2.13-1.53 0.3-1.18 0.37-2.33 0.14-2.55-1.12-1.13-9.47-1.27-11.48-0.19-2.03 1.09-2.19 1.7-1.61 6.12 0.86 6.49 1.42 7.75 3.41 7.76 4.36 0.03 9.21 1.11 11.41 2.55 1.33 0.87 2.8 1.25 3.25 0.84 0.46-0.42 0.51-0.2 0.11 0.49-1.41 2.46 0.5 3.42 3.25 1.63 2.01-1.31 2.35-1.36 1.41-0.21-1.7 2.08-0.91 2.57 4.3 2.67 4.1 0.08 4.39-0.07 3.46-1.81z" fill="#fff"/>
      <path id="path3486" d="m-223.13 705.14c-0.46-1.22-0.77-1.27-1.39-0.27-0.94 1.52-0.18 3.15 1.1 2.37 0.49-0.31 0.62-1.25 0.29-2.1z" fill="#fff"/>
      <path id="path3484" d="m-153.49 686.88c0.3-0.45 3.47-1.23 7.04-1.74 3.58-0.51 6.43-1.37 6.34-1.91s1.98-0.98 4.59-0.98c3.63 0 5.8-0.71 9.16-3 5.74-3.9 6.35-4.5 8.28-8.25 3.09-5.97 1.99-12.2-3.21-18.25-2.86-3.33-3.09-3.42-4.79-1.76-1.49 1.46-1.56 1.95-0.43 3 0.9 0.84 1.13 0.87 0.69 0.08-0.36-0.65-0.2-1.46 0.36-1.81 0.56-0.34 1.01 0.23 1.01 1.27 0 4.3-13.89 13.52-22.47 14.91-1.94 0.32-3.53 0.91-3.53 1.32 0 1.01-18.51 3.28-20.82 2.55-1.01-0.32-3.6-0.77-5.76-1-8.82-0.93-25.27-8.15-33.87-14.88-6.21-4.86-12.55-11.75-12.48-13.55 0.06-1.25 0.27-1.16 0.93 0.37 0.69 1.61 0.88 1.26 0.93-1.75 0.05-2.7-0.35-3.75-1.43-3.75-1.17 0-1.5 1.35-1.5 6.14 0 6.59-1.39 8.77-5.64 8.83-3.87 0.06-4.43 5-1.27 11.19 3.36 6.6 15.91 18.58 18.06 17.25 0.47-0.29 0.85-0.05 0.85 0.53 0 0.59 0.34 0.97 0.75 0.86 0.42-0.12 3 0.82 5.75 2.09 3.18 1.45 7.52 2.43 11.89 2.67 3.79 0.21 7.1 0.6 7.37 0.86 0.81 0.81 32.63-0.43 33.2-1.29z" fill="#fff"/>
      <path id="path3482" d="m-130.28 677.88c-1.07-0.68-1.01-0.98 0.3-1.48 0.96-0.36 1.38-0.21 1.03 0.36-0.34 0.55-0.19 0.99 0.34 0.99 0.52 0 1.23-0.74 1.58-1.64s0.91-1.37 1.25-1.03c0.65 0.65-1.46 3.68-2.54 3.66-0.34-0.01-1.23-0.4-1.96-0.86z"/>
      <path id="path3480" d="m-123.37 672.34c-0.04-1.06 0.2-1.65 0.53-1.32s0.37 1.2 0.08 1.92c-0.32 0.8-0.56 0.56-0.61-0.6z"/>
      <path id="path3478" d="m-223.29 670.75c0-1.37 0.23-1.94 0.51-1.25 0.27 0.69 0.27 1.81 0 2.5-0.28 0.69-0.51 0.13-0.51-1.25z" fill="#fff"/>
      <path id="path3476" d="m-226.45 668.31c0-0.24 0.45-0.72 1-1.06s1-0.14 1 0.44c0 0.59-0.45 1.06-1 1.06s-1-0.2-1-0.44z" fill="#fff"/>
      <path id="path3474" d="m-25.545 666.83c0.851-0.54 1.441-2.73 1.5-5.6 0.092-4.39-0.207-4.97-4.402-8.59-2.475-2.14-3.907-3.88-3.182-3.89 1.481 0 0.596-4.24-1.014-4.85-0.513-0.2-1.343-1.44-1.844-2.75-1.206-3.18-4.429-3.31-3.609-0.15 0.321 1.24 1.138 4.61 1.814 7.5 0.79 3.37 1.752 5.25 2.688 5.25 1.169 0 1.106 0.39-0.316 1.96-1.207 1.33-1.57 2.77-1.136 4.5 0.81 3.23 2.322 3.25 3.781 0.04 1.274-2.79 3.443-3.5 2.312-0.75-1.569 3.81-1.678 5.32-0.489 6.76 1.428 1.72 1.964 1.8 3.897 0.57z" fill="#ffce31"/>
      <path id="path3472" d="m-181.45 660.5c-0.01-3.14-0.28-3.35-8.23-6.44-4.52-1.75-8.28-3.1-8.35-3-0.08 0.11-0.43 1.43-0.8 2.95-0.59 2.47-0.27 2.92 3.11 4.37 2.08 0.89 5.57 2.46 7.77 3.48 5.6 2.61 6.5 2.42 6.5-1.36z" fill="#fff"/>
      <path id="path3470" d="m-173.79 658.48c-0.27-0.67-0.48 0.12-0.46 1.77s0.24 2.21 0.5 1.23c0.25-0.97 0.23-2.32-0.04-3z"/>
      <path id="path3468" d="m-242.95 656.75c-0.39-0.64 0.64-0.81 2.79-0.47 4.26 0.68 6.25-1.31 5.27-5.27-0.37-1.52-0.89-4.11-1.14-5.76-0.45-2.92-0.42-2.91 0.81 0.41 1.69 4.52 3.87 5.82 7.2 4.31 2.2-1.01 2.57-1.81 2.57-5.63 0-3.86-0.57-5.09-4.25-9.08-4.47-4.86-5.79-5.29-12.25-4-3.49 0.7-3.84 0.61-2.76-0.69 0.69-0.83 0.91-1.87 0.5-2.32-0.4-0.45-0.12-0.46 0.62-0.03 0.75 0.43 3.08 0.87 5.17 0.97 2.65 0.13 5.12 1.23 8.14 3.63 5.91 4.71 9.05 4.32 11.16-1.37 0.85-2.31 1.68-5.35 1.84-6.77 0.4-3.45-2.65-7.92-5.44-7.96-1.22-0.02-3.35-0.68-4.73-1.47-4.72-2.7-10.53-1.81-16.65 2.53-2.68 1.9-4.1 9.69-2.36 12.94 0.96 1.8 0.86 2.54-0.56 4.12-0.96 1.05-1.39 1.91-0.96 1.91s0.21 0.69-0.48 1.52c-3.41 4.11-2.91 15.28 0.81 18.23 1.89 1.49 5.59 1.68 4.7 0.25z" fill="#fff"/>
      <path id="path3466" d="m-245.45 654.75c0.83-0.53 1.95-0.97 2.5-0.97s0.33 0.44-0.5 0.97c-0.82 0.54-1.95 0.97-2.5 0.97s-0.32-0.43 0.5-0.97z" fill="#fff"/>
      <path id="path3464" d="m-177.44 649c0.01-1.51 0.69-4.99 1.52-7.72 1.84-6.06 1.52-7.07-2.45-7.86-1.7-0.34-4.4-1.59-5.99-2.76-1.59-1.18-3.36-1.86-3.93-1.5-1.24 0.76-6.68 10.24-7.56 13.17-0.53 1.78 0.25 2.45 5.64 4.77 3.45 1.49 6.94 3.11 7.76 3.62 3.03 1.85 5 1.17 5.01-1.72z" fill="#fff"/>
      <path id="path3462" d="m-204.78 646.5c-0.28-0.69-0.51-0.12-0.51 1.25 0 1.38 0.23 1.94 0.51 1.25 0.27-0.69 0.27-1.81 0-2.5z"/>
      <path id="path3460" d="m-42.328 639.5c0.065-0.69 0.045-1.81-0.044-2.5s0.307-1.25 0.882-1.25c0.574 0 1.043 0.52 1.043 1.16 0 2.97 3.986-2.88 4.559-6.7 0.909-6.06-0.974-11.11-4.892-13.12-1.742-0.89-3.392-1.94-3.667-2.33s-1.569-1.27-2.877-1.96c-2.707-1.43-4.08-0.23-4.107 3.6-0.009 1.18-1.321 3.54-2.917 5.25-2.76 2.95-2.796 3.1-0.74 3.1 1.188 0 2.722-0.9 3.409-2s1.808-1.96 2.491-1.92c0.953 0.06 0.946 0.2-0.034 0.59-1.67 0.67-4.225 6.86-4.225 10.23 0 2.57 2.27 6.83 4.442 8.34 1.742 1.21 6.549 0.86 6.677-0.49z" fill="#fff"/>
      <path id="path3458" d="m-146.33 636.22c4.75-0.59 14.12-6.3 18.99-11.58 2.14-2.32 3.89-4.55 3.89-4.96s1.11-2.92 2.46-5.59c1.55-3.05 2.69-7.43 3.09-11.84 0.67-7.45 0.48-7.9-5.42-12.74-1.53-1.25-2.13-2.87-2.13-5.75 0-5.12-1.2-5.09-3.53 0.07-1.54 3.41-1.64 4.42-0.57 6.13 0.7 1.12 1.51 4.36 1.81 7.19 0.41 4 0.16 5.46-1.09 6.5-0.89 0.74-1.62 1.93-1.62 2.65 0 0.71-1.68 1.84-3.75 2.5-2.06 0.65-4.17 1.59-4.7 2.07-0.52 0.49-2.43 0.88-4.25 0.88-1.81 0-3.3 0.4-3.3 0.89 0 1.45-10.09 11.17-11.01 10.6-0.46-0.28-0.59-2.95-0.28-5.94 0.53-5.18 0.41-5.55-2.8-8.48-1.84-1.69-3.88-3.07-4.51-3.07-1.58 0-4.4-4.46-4.4-6.96 0-1.13-0.65-2.04-1.48-2.04-0.81 0-5.4-1.83-10.19-4.08-5.2-2.43-9.64-3.9-11.02-3.64-2.01 0.39-2.3 0.05-2.27-2.67 0.03-3.66 1.74-6.23 4.49-6.75 1.65-0.32 2.02-1.32 2.27-6.08 0.37-6.95 1.93-8.32 13.5-11.87 6.14-1.89 7.9-2.86 8.34-4.59 1.1-4.37-1.38-5.58-4.52-2.21-1.8 1.93-4.86 2.89-18.81 5.9-3.72 0.81-6.51 2.54-10.87 6.74-0.71 0.69-1.66 1.26-2.12 1.27-0.96 0.03-6.4 7.5-6.74 9.27-0.13 0.67-0.81 3.22-1.5 5.67-0.71 2.5-0.99 6.24-0.64 8.5 0.87 5.65 3.56 13.85 4.95 15.04 0.63 0.55 2.9 3.48 5.03 6.5 2.14 3.03 4.59 5.92 5.45 6.42 0.86 0.51 2.55 1.91 3.76 3.11 2.76 2.76 14.66 9.47 16.8 9.47 0.88 0 2.38 0.46 3.34 1.02 0.95 0.56 4.43 1.64 7.73 2.4 5.56 1.28 7.69 1.29 17.62 0.05z" fill="#fff"/>
      <path id="path3456" d="m-156.68 634.58c0.58-0.58 1.65-0.86 2.37-0.62 0.75 0.25 0.3 0.71-1.06 1.06-1.66 0.44-2.05 0.31-1.31-0.44z"/>
      <path id="path3454" d="m-162.18 634.15c0.34-0.33 1.2-0.37 1.92-0.08 0.8 0.32 0.56 0.55-0.6 0.6-1.06 0.05-1.65-0.19-1.32-0.52z"/>
      <path id="path3452" d="m-148.69 634.09c0.69-0.28 0.96-0.99 0.6-1.58-0.4-0.63-0.19-0.78 0.49-0.35 1.74 1.07 1.38 2.6-0.6 2.51-1.05-0.04-1.25-0.28-0.49-0.58z"/>
      <path id="path3450" d="m-139.85 631.35c0.65-1.68 3.4-2.98 3.4-1.6 0 0.51-0.89 1.41-1.97 1.99-1.59 0.85-1.87 0.77-1.43-0.39z"/>
      <path id="path3448" d="m-65.081 625.34c5.364-1.61 10.879-6.61 12.424-11.27 1.719-5.17-1.147-17.08-4.956-20.59-4.829-4.45-9.223-5.85-15.364-4.89-2.918 0.46-5.946 0.47-6.728 0.04-0.975-0.55-2.093 0.11-3.548 2.07-1.169 1.58-3.434 3.17-5.034 3.52-3.318 0.73-5.765 3.23-8.944 9.17-2.969 5.54-2.799 7.81 0.784 10.36l3 2.14v-2.57c0-1.62-0.556-2.57-1.5-2.57-1.717 0-2.031-2.55-0.435-3.54 1.452-0.9 7.935 0.4 7.935 1.59 0 0.52-0.873 0.95-1.941 0.95-2.767 0-3.21 1.28-1.796 5.2 1.945 5.39 6.057 9.9 9.838 10.8 5.374 1.26 11.193 1.12 16.265-0.41z" fill="#ffce31"/>
      <path id="path3446" d="m-81.243 603.71c-0.808-1.3-1.032-3.36-0.609-5.61 0.538-2.87 1.364-3.85 4.257-5.06 4.241-1.77 6.203-0.91 7.301 3.19 0.944 3.53-0.363 6.06-4.133 8.01-3.896 2.02-5.292 1.91-6.816-0.53z"/>
      <path id="path3444" d="m-75.958 595.91c-0.221-0.22-1.197-0.1-2.167 0.27-1.484 0.57-1.535 0.82-0.32 1.57 1.332 0.83 3.527-0.8 2.487-1.84z"/>
      <path id="path3442" d="m-154.09 618.25c0.32-0.82 1.23-1.5 2.03-1.5 2.98 0 5.96-6.89 6.04-13.94 0.07-6.27-0.12-6.83-3.43-10.22-1.92-1.97-4.97-3.91-6.77-4.3-2.4-0.52-3.62-1.55-4.59-3.87-1.78-4.25-3.2-5.24-9.44-6.55-7.55-1.59-10.42-1.4-15.35 1.01-2.39 1.16-5.02 2.45-5.85 2.85-0.82 0.4-1.63 1.63-1.8 2.74-0.25 1.65 0.43 2.13 3.8 2.67 2.26 0.36 5.86 1.81 8 3.23 2.14 1.41 4.36 2.28 4.95 1.92 0.58-0.36 1.05-0.13 1.05 0.51s0.7 0.9 1.56 0.57c0.92-0.35 1.29-0.18 0.91 0.43-0.41 0.66 0.29 0.8 1.95 0.38 2.27-0.57 2.58-0.34 2.58 1.92 0 4.03 2.01 7.41 5.17 8.72 4.44 1.84 6.83 5.54 6.83 10.57 0 4.3 1.24 5.8 2.36 2.86z" fill="#fff"/>
      <path id="path3440" d="m-211.45 604.99c0-1.86-0.67-4.06-1.5-4.88-1.72-1.72-1.96-3.36-0.5-3.36 0.55 0 1-0.9 1-2 0-2.23-0.75-2.42-4.3-1.07-3.75 1.42-6.69 6.88-5.87 10.87 0.85 4.15 2.65 3.78 2.74-0.57 0.11-5.02 1.98-5.98 2.17-1.12 0.09 2.25 0.92 5.25 1.85 6.67 1.61 2.46 1.75 2.49 3.05 0.7 0.75-1.02 1.36-3.38 1.36-5.24z" fill="#ffce31"/>
      <path id="path3438" d="m-135.2 607.85c5.31-2.02 8.65-9.8 5.54-12.91-1.98-1.98-1.53-11.71 0.65-14.12 1.83-2.02 1.83-2.12 0.01-4.12-1.81-2-1.9-2.01-3.4-0.19-2.72 3.28-7.13 5.47-9.92 4.92-2.41-0.48-2.77-0.1-4.31 4.49-1.61 4.8-1.6 5.14 0.25 8.17 1.06 1.74 1.93 3.94 1.93 4.88 0 1.16 0.52 1.52 1.58 1.11 0.95-0.36 1.39-1.35 1.1-2.47-0.27-1.02-0.09-2.1 0.39-2.4s1.16 0.61 1.52 2.02c0.35 1.41 1.52 3.19 2.6 3.94 1.32 0.93 1.59 1.6 0.82 2.08-0.62 0.38-1.9 0-2.84-0.85-2.26-2.04-3.48-1.03-4.76 3.96l-1.05 4.1 3.69-0.83c2.04-0.46 4.82-1.26 6.2-1.78z" fill="#ffe6d5"/>
      <path id="path3436" d="m-113.89 605.66c0.42-0.68 3.19-0.97 7.19-0.75 6.49 0.34 6.51 0.34 8.318-3.03 0.997-1.85 2.819-4.44 4.049-5.75l2.235-2.38h-2.115c-1.164 0-2.413-0.48-2.776-1.07-0.363-0.58-1.402-0.77-2.309-0.41-4.012 1.6-14.312 2.46-16.362 1.37-1.79-0.96-2-0.88-1.44 0.58 0.36 0.93 0.65 4.13 0.65 7.11 0 5.1 1.02 6.82 2.56 4.33z" fill="#fff"/>
      <path id="path3434" d="m-85.55 591.25c0.768-0.75 4.659-3.98 3.303-5.61-2.029-2.46-0.209-3.23 0.437-3.34 0.488-0.08 1.989 1.82 0.702 2.96-1.983 1.77 2.446 2.46 6.352 2.48 3.939 0.02 4.841-1.29 3.359-4.87-1.83-4.42-14.336-8.14-15.67-4.67-0.442 1.16-0.941 1.22-2.413 0.3-3.635-2.27-8.656 4.84-7.414 10.49 1.01 4.6 7.613 5.91 11.344 2.26z" fill="#fff"/>
      <path id="path3432" d="m-88.217 586.56c0.618-1.85 2.77-2.16 2.77-0.39 0 0.87-0.712 1.58-1.583 1.58s-1.405-0.53-1.187-1.19z"/>
      <path id="path3430" d="m-103.68 590.82c0.95-0.5 2.52-1.17 3.48-1.46 2.889-0.9 2-3.39-1.5-4.21-3.82-0.9-6.75-0.61-8.52 0.84-1.78 1.46-2.88 0.02-1.57-2.04 1.18-1.87 9.24-2.33 12.757-0.73 1.327 0.6 1.704 0.53 1.228-0.24-0.377-0.61 0.293-2.02 1.489-3.14l2.175-2.02-2.903-1.23c-3.566-1.51-13.116-1.4-18.156 0.21-3.94 1.25-9.25 5.54-9.25 7.45 0 1.79 3.92 5.5 5.79 5.49 1.47-0.02 1.5-0.16 0.21-0.99-1.22-0.79-1.09-0.97 0.67-0.98 2.88-0.02 5.33 0.97 5.33 2.16 0 0.52-1.01 0.67-2.25 0.32-1.76-0.49-1.92-0.4-0.75 0.42 1.87 1.3 9.43 1.4 11.77 0.15z" fill="#ffce31"/>
      <path id="path3428" d="m-111.45 589.75c0-0.55 0.45-1 1-1s1 0.45 1 1-0.45 1-1 1-1-0.45-1-1z"/>
      <path id="path3426" d="m-121.45 585.81c0-0.58 0.45-1.06 1-1.06s1 0.2 1 0.44c0 0.25-0.45 0.72-1 1.06s-1 0.14-1-0.44z"/>
      <path id="path3424" d="m-148.48 586.82c1.77-3.32 1.25-9.85-0.97-12.07-3.09-3.09-10-2.47-10 0.91 0 0.93-0.51 2.21-1.14 2.84-1.96 1.96 0.72 6.54 4.91 8.41 4.98 2.2 5.98 2.19 7.2-0.09z" fill="#ffe6d5"/>
      <path id="path3422" d="m-137.01 578.6c3.02-1.38 3.95-3.81 3.04-7.94-0.83-3.79-4.07-5.29-7.18-3.32-2.1 1.33-2.24 1.23-2.87-2.11-0.72-3.88-4.49-7.48-7.81-7.47-1.16 0-3.49 0.84-5.18 1.87-2.9 1.76-3.03 2.12-2.5 6.74 0.55 4.73 0.65 4.87 3.56 4.53 1.65-0.19 5.57 1.88 4.21-1.33-0.91-2.15 3.03-2.52 3.29 1.24 0.04 0.52-0.71 0.94-1.57 0.94-1.05 0-0.55 0.87 1.5 2.59 1.69 1.42 3.07 3.22 3.07 4 0 1.74 4.86 1.89 8.44 0.26z" fill="#fff"/>
      <path id="path3420" d="m-145.91 575.8c-0.88-1.42 0.24-3.05 2.1-3.05 0.87 0 1.37 0.7 1.19 1.67-0.39 2.01-2.39 2.85-3.29 1.38z"/>
      <path id="path3418" d="m-160.87 575.61c1.27-2.45 1.38-3.66 0.52-5.54-1.81-3.97-1.29-7.82 1.46-10.78 2.94-3.17 3-2.99-1.86-5.02l-3.7-1.54v3.39c0 4.24-1.26 5.29-8.06 6.7-2.99 0.62-7.37 2.24-9.74 3.61-3.99 2.29-4.29 2.75-4 6.15 0.29 3.55 0.42 3.66 3.8 3.32 4.07-0.4 4.84-1.28 4.33-4.96-0.36-2.65-0.35-2.65 0.66-0.33 0.56 1.29 1.59 2.14 2.27 1.88 1.95-0.75 5.74 1.04 5.74 2.7 0 0.84 1.44 1.92 3.25 2.44 1.79 0.52 3.35 0.98 3.48 1.03 0.12 0.05 0.95-1.32 1.85-3.05z" fill="#ffe6d5"/>
      <path id="path3416" d="m-124.35 576.37c-0.94-1.13-0.61-1.36 1.81-1.24 1.62 0.08 3.24 0.44 3.6 0.79 0.35 0.35 1.84 0.01 3.31-0.76 1.48-0.77 3.92-1.4 5.43-1.4 3.12-0.01 3.32-0.89 1.66-7.47-1.99-7.89-19.37-25.15-30.96-30.74-10.41-5.03-23.5-9.76-27.07-9.79-1.74-0.01-10.52 4.6-11.37 5.97-1.1 1.79-3.29 15.7-2.84 18.06 0.26 1.37 1.31 3.6 2.32 4.95 1.7 2.25 2.05 2.33 4.43 1.06 2.9-1.55 3.54-3.34 0.83-2.33-1.5 0.56-1.56 0.43-0.44-0.95 1.1-1.35 1.02-1.68-0.5-2.13-1-0.29 0.22-0.22 2.69 0.16 2.48 0.39 6.87 0.7 9.76 0.7 2.88 0 4.76 0.16 4.17 0.36-1.32 0.44 4.63 4.57 8.07 5.62 3.25 0.98 7 4.44 7 6.45 0 1.5 1.03 1.75 8.49 2.07 1.56 0.07 1.68 0.28 0.57 0.97-1.11 0.68-0.29 1.98 3.77 5.95 4.8 4.71 7.92 6.9 5.27 3.7z" fill="#fff"/>
      <path id="path3414" d="m-126.36 571.2c0.08-3.9 0.1-3.91 0.97-0.97 0.55 1.84 0.52 3.35-0.08 3.95-0.63 0.63-0.95-0.42-0.89-2.98z"/>
      <path id="path3412" d="m-128.78 571.09c-0.37-0.37-0.65-1.38-0.64-2.25 0.03-1.31 0.22-1.26 1.1 0.24 1.07 1.85 0.76 3.23-0.46 2.01z"/>
      <path id="path3410" d="m-136.7 563.09c0.69-0.28 1.82-0.28 2.5 0 0.69 0.28 0.13 0.5-1.25 0.5-1.37 0-1.93-0.22-1.25-0.5z"/>
      <path id="path3408" d="m-171.45 547.75c0-1.86 0.27-2.13 1.2-1.2 0.94 0.94 0.94 1.47 0 2.4-0.93 0.94-1.2 0.67-1.2-1.2z"/>
      <path id="path3406" d="m-163.45 548.75c-0.82-0.53-1.05-0.97-0.5-0.97s1.68 0.44 2.5 0.97c0.83 0.54 1.05 0.97 0.5 0.97s-1.67-0.43-2.5-0.97z"/>
      <path id="path3404" d="m-168.45 548.36c0-0.22 0.7-0.66 1.56-0.99 0.89-0.34 1.29-0.17 0.94 0.39-0.59 0.95-2.5 1.41-2.5 0.6z"/>
      <path id="path3402" d="m-120.45 576.69c0-0.58-0.45-0.78-1-0.44s-1 0.82-1 1.06 0.45 0.44 1 0.44 1-0.47 1-1.06z"/>
      <path id="path3400" d="m-70.346 576.6c4.38-1.49 9.073-4.76 8.396-5.85-0.289-0.47 0.493-1 1.739-1.18 4.686-0.66 8.544-13.25 6.459-21.07-0.642-2.41-1.219-2.75-4.675-2.75-2.517 0-4.588 0.67-5.731 1.85-0.984 1.01-3.325 2.7-5.204 3.75-7.039 3.93-12.791 11.91-14.352 19.92-0.532 2.72-0.238 3.17 3.09 4.65 4.565 2.04 5.998 2.13 10.278 0.68z" fill="#ffce31"/>
      <path id="path3398" d="m-72.447 574.75c0-0.55 0.45-1 1-1s1 0.45 1 1-0.45 1-1 1-1-0.45-1-1z"/>
      <path id="path3396" d="m-79.413 573.72c-0.019-0.84 0.746-2.64 1.698-4 0.953-1.36 1.681-2.69 1.619-2.97-0.424-1.87 6.991-7 10.117-7 1.95 0-0.232 2.49-4.468 5.1-2.75 1.69-5 3.66-5 4.38 0 1.96-3.925 6.41-3.966 4.49z"/>
      <path id="path3394" d="m-68.447 573.82c0-1.2 2.869-4.07 4.072-4.07 1.533 0 1.054 1.45-1.083 3.28-2.274 1.95-2.989 2.14-2.989 0.79z"/>
      <path id="path3392" d="m-59.431 566c-0.009-1.24 0.434-2.25 0.984-2.25 1.253 0 1.253 1.06 0 3-0.784 1.21-0.972 1.07-0.984-0.75z"/>
      <path id="path3390" d="m-58.447 558.75c0-0.55 0.45-1 1-1s1 0.45 1 1-0.45 1-1 1-1-0.45-1-1z"/>
      <path id="path3388" d="m-174.95 574.75c-0.34-0.55-1.06-1-1.61-1s-0.73 0.45-0.39 1 1.07 1 1.62 1 0.72-0.45 0.38-1z" fill="#ffe6d5"/>
      <path id="path3386" d="m-177.88 530.66c3.73-3.93 7.19-5.72 11.96-6.21 2.14-0.22 4.35-1.18 5.11-2.22 2.23-3.04 2.68-7.96 1.03-11.11-1.7-3.25-9.35-11.43-10.44-11.19-0.4 0.09-2.88-0.19-5.52-0.63-6.66-1.1-13.01 1.39-16.11 6.3-3.87 6.17-4.78 10.2-3.57 15.86 1.65 7.69 9.8 15 10.08 9.04 0.1-2.07 0.19-2.03 1.19 0.5 1.4 3.53 2.65 3.47 6.27-0.34z" fill="#fff"/>
      <path id="path3384" d="m-182.11 531.3c0-0.8 0.37-1.23 0.83-0.95 0.46 0.29 0.83 0.94 0.83 1.46s-0.37 0.94-0.83 0.94-0.83-0.65-0.83-1.45z"/>
      <path id="path3380" d="m-188.83 529.28c-0.92-1.39-1.31-2.53-0.88-2.53 0.97 0 3.56 4.04 2.97 4.63-0.24 0.24-1.18-0.7-2.09-2.1z"/>
    </g>
  </g>
  <metadata>
    <rdf:RDF>
      <cc:Work>
        <dc:format>image/svg+xml</dc:format>
        <dc:type rdf:resource="http://purl.org/dc/dcmitype/StillImage"/>
        <cc:license rdf:resource="http://creativecommons.org/licenses/publicdomain/"/>
        <dc:publisher>
          <cc:Agent rdf:about="http://openclipart.org/">
            <dc:title>Openclipart</dc:title>
          </cc:Agent>
        </dc:publisher>
      </cc:Work>
      <cc:License rdf:about="http://creativecommons.org/licenses/publicdomain/">
        <cc:permits rdf:resource="http://creativecommons.org/ns#Reproduction"/>
        <cc:permits rdf:resource="http://creativecommons.org/ns#Distribution"/>
        <cc:permits rdf:resource="http://creativecommons.org/ns#DerivativeWorks"/>
      </cc:License>
    </rdf:RDF>
  </metadata>
</svg>
